<?xml version="1.0" encoding="UTF-8" standalone="no"?>
<!-- Created with Inkscape (http://www.inkscape.org/) -->

<svg
   width="73.075119mm"
   height="100mm"
   viewBox="0 0 73.075119 100"
   version="1.1"
   id="svg5"
   inkscape:version="1.1.1 (3bf5ae0d25, 2021-09-20, custom)"
   sodipodi:docname="drawing.svg"
   inkscape:export-filename="/home/mxfxm/Repositories/ChristmasTree/02_silk.png"
   inkscape:export-xdpi="96"
   inkscape:export-ydpi="96"
   xmlns:inkscape="http://www.inkscape.org/namespaces/inkscape"
   xmlns:sodipodi="http://sodipodi.sourceforge.net/DTD/sodipodi-0.dtd"
   xmlns="http://www.w3.org/2000/svg"
   xmlns:svg="http://www.w3.org/2000/svg">
  <sodipodi:namedview
     id="namedview7"
     pagecolor="#ffffff"
     bordercolor="#666666"
     borderopacity="1.0"
     inkscape:pageshadow="2"
     inkscape:pageopacity="0.0"
     inkscape:pagecheckerboard="true"
     inkscape:document-units="mm"
     showgrid="false"
     inkscape:zoom="1.8101934"
     inkscape:cx="55.242717"
     inkscape:cy="212.13204"
     inkscape:window-width="1920"
     inkscape:window-height="1031"
     inkscape:window-x="0"
     inkscape:window-y="0"
     inkscape:window-maximized="1"
     inkscape:current-layer="layer6"
     showborder="false"
     fit-margin-top="0"
     fit-margin-left="0"
     fit-margin-right="0"
     fit-margin-bottom="0" />
  <defs
     id="defs2" />
  <g
     inkscape:label="Tree"
     inkscape:groupmode="layer"
     id="layer1"
     style="display:inline"
     transform="translate(-5.0030297,-5.4010264)">
    <path
       sodipodi:type="star"
       style="fill:#1e9a00;fill-opacity:1;stroke:none"
       id="path2863"
       inkscape:flatsided="false"
       sodipodi:sides="3"
       sodipodi:cx="698.08704"
       sodipodi:cy="734.67804"
       sodipodi:r1="186.60518"
       sodipodi:r2="75.062119"
       sodipodi:arg1="-1.5707963"
       sodipodi:arg2="-0.52359878"
       inkscape:rounded="0"
       inkscape:randomized="0"
       d="m 698.08704,548.07286 65.0057,149.07412 96.59912,130.83365 -161.60482,-18.24047 -161.60483,18.24046 96.59912,-130.83364 z"
       transform="matrix(0.09644891,0,0,0.09644891,-25.789138,-36.095086)"
       inkscape:transform-center-x="2.4323831e-06"
       inkscape:transform-center-y="-4.499469" />
    <path
       sodipodi:type="star"
       style="display:inline;fill:#1e9a00;fill-opacity:1;stroke:none"
       id="path2863-2"
       inkscape:flatsided="false"
       sodipodi:sides="3"
       sodipodi:cx="698.08704"
       sodipodi:cy="734.67804"
       sodipodi:r1="186.60518"
       sodipodi:r2="75.062119"
       sodipodi:arg1="-1.5707963"
       sodipodi:arg2="-0.52359878"
       inkscape:rounded="0"
       inkscape:randomized="0"
       transform="matrix(0.11857265,0,0,0.09644891,-41.233431,-26.289389)"
       inkscape:transform-center-y="-4.4994685"
       d="m 698.08704,548.07286 65.0057,149.07412 96.59912,130.83365 -161.60482,-18.24047 -161.60483,18.24046 96.59912,-130.83364 z" />
    <path
       sodipodi:type="star"
       style="display:inline;fill:#1e9a00;fill-opacity:1;stroke:none"
       id="path2863-9"
       inkscape:flatsided="false"
       sodipodi:sides="3"
       sodipodi:cx="698.08704"
       sodipodi:cy="734.67804"
       sodipodi:r1="186.60518"
       sodipodi:r2="75.062119"
       sodipodi:arg1="-1.5707963"
       sodipodi:arg2="-0.52359878"
       inkscape:rounded="0"
       inkscape:randomized="0"
       transform="matrix(0.14038617,0,0,0.08778614,-56.46117,-7.8779)"
       inkscape:transform-center-y="-4.0953341"
       d="m 698.08704,548.07286 65.0057,149.07412 96.59912,130.83365 -161.60482,-18.24047 -161.60483,18.24046 96.59912,-130.83364 z" />
    <path
       sodipodi:type="star"
       style="display:inline;fill:#1e9a00;fill-opacity:1;stroke:none"
       id="path2863-1"
       inkscape:flatsided="false"
       sodipodi:sides="3"
       sodipodi:cx="698.08704"
       sodipodi:cy="734.67804"
       sodipodi:r1="186.60518"
       sodipodi:r2="75.062119"
       sodipodi:arg1="-1.5707963"
       sodipodi:arg2="-0.52359878"
       inkscape:rounded="0"
       inkscape:randomized="0"
       transform="matrix(0.17462144,0,0,0.12323836,-80.360372,-21.698349)"
       inkscape:transform-center-x="1.6719954e-06"
       inkscape:transform-center-y="-5.7492337"
       d="m 698.08704,548.07286 65.0057,149.07412 96.59912,130.83365 -161.60482,-18.24047 -161.60483,18.24046 96.59912,-130.83364 z" />
    <path
       sodipodi:type="star"
       style="display:inline;fill:#1e9a00;fill-opacity:1;stroke:none"
       id="path2863-27"
       inkscape:flatsided="false"
       sodipodi:sides="3"
       sodipodi:cx="698.08704"
       sodipodi:cy="734.67804"
       sodipodi:r1="186.60518"
       sodipodi:r2="75.062119"
       sodipodi:arg1="-1.5707963"
       sodipodi:arg2="-0.52359878"
       inkscape:rounded="0"
       inkscape:randomized="0"
       transform="matrix(0.22609201,0,0,0.14359396,-116.29131,-19.897035)"
       inkscape:transform-center-x="3.6784225e-06"
       inkscape:transform-center-y="-6.6988492"
       d="m 698.08704,548.07286 65.0057,149.07412 96.59912,130.83365 -161.60482,-18.24047 -161.60483,18.24046 96.59912,-130.83364 z" />
    <rect
       style="fill:#9c9c9c;fill-opacity:1;stroke:none;stroke-width:0.0456874"
       id="rect5570"
       width="5.5405021"
       height="9.0242624"
       x="41.540588"
       y="96.376762" />
    <rect
       style="display:inline;fill:#9c9c9c;fill-opacity:1;stroke:none;stroke-width:0.0456874"
       id="rect5570-9"
       width="5.5405021"
       height="9.0242624"
       x="36.000088"
       y="96.376762" />
  </g>
  <g
     inkscape:groupmode="layer"
     id="layer2"
     inkscape:label="Star"
     style="display:inline"
     transform="translate(-5.0030297,-5.4010264)">
    <path
       sodipodi:type="star"
       style="fill:#9c9c9c;fill-opacity:1;stroke:none"
       id="path3108"
       inkscape:flatsided="false"
       sodipodi:sides="5"
       sodipodi:cx="180.83186"
       sodipodi:cy="78.161125"
       sodipodi:r1="112.56683"
       sodipodi:r2="45.280117"
       sodipodi:arg1="0.9294531"
       sodipodi:arg2="1.5577716"
       inkscape:rounded="0"
       inkscape:randomized="0"
       d="M 248.17748,168.36013 181.42161,123.4374 115.85846,170.08364 137.95381,92.713144 73.330471,44.773362 153.74202,41.878491 179.36576,-34.39616 206.96748,41.185205 287.42715,41.98466 224.0744,91.591384 Z"
       transform="matrix(0.09644891,0,0,0.09644891,24.042681,8.7184986)"
       inkscape:transform-center-x="0.043697106"
       inkscape:transform-center-y="-0.99510088" />
  </g>
  <g
     inkscape:groupmode="layer"
     id="layer4"
     inkscape:label="Snow"
     transform="translate(-5.0030297,-5.4010264)"
     style="display:inline">
    <path
       style="fill:none;stroke:none;stroke-width:0.0964488px;stroke-linecap:butt;stroke-linejoin:miter;stroke-opacity:1"
       d="m 35.270867,31.143982 -9.316879,12.618762 7.87871,-2.813066 z"
       id="path6317" />
    <path
       style="fill:#ffffff;fill-opacity:1;stroke:none;stroke-width:0.098629px;stroke-linecap:butt;stroke-linejoin:miter;stroke-opacity:1"
       d="M 5.0030297,98.995984 41.540588,96.257002 78.07815,98.995984 66.46077,89.030897 c 0,0 -19.59224,4.711597 -49.339506,-0.407681"
       id="path6385" />
    <path
       style="fill:#ffffff;fill-opacity:1;stroke:none;stroke-width:0.080214px;stroke-linecap:butt;stroke-linejoin:miter;stroke-opacity:1"
       d="m 13.320925,80.340627 28.215693,-2.346007 28.215695,2.346007 -8.971382,-8.535344 c 0,0 -15.129873,4.035602 -38.101845,-0.349189"
       id="path6385-3" />
    <path
       style="fill:#ffffff;fill-opacity:1;stroke:none;stroke-width:0.0604929px;stroke-linecap:butt;stroke-linejoin:miter;stroke-opacity:1"
       d="m 18.853512,64.80732 22.709196,-1.657772 22.709197,1.657772 -7.220553,-6.031375 c 0,0 -12.177169,2.8517 -30.665989,-0.246751"
       id="path6385-3-6" />
    <path
       style="fill:#ffffff;fill-opacity:1;stroke:none;stroke-width:0.0586633px;stroke-linecap:butt;stroke-linejoin:miter;stroke-opacity:1"
       d="m 22.378684,53.56844 19.132275,-1.850477 19.132277,1.850477 -6.083244,-6.732492 c 0,0 -10.259147,3.183196 -25.835795,-0.275433"
       id="path6385-3-6-0" />
    <path
       style="fill:#ffffff;fill-opacity:1;stroke:none;stroke-width:0.0529682px;stroke-linecap:butt;stroke-linejoin:miter;stroke-opacity:1"
       d="m 25.953988,43.762744 15.597762,-1.850477 15.59777,1.850477 -4.959423,-6.732492 c 0,0 -8.363865,3.183197 -21.062873,-0.275433 l 10.413371,3.48048 10.596623,-3.176205 -4.326892,-5.915112 c 0,0 -4.837061,2.97188 -12.539458,0"
       id="path6385-3-6-0-6" />
  </g>
  <g
     inkscape:groupmode="layer"
     id="layer5"
     inkscape:label="Balls"
     style="display:inline"
     transform="translate(-5.0030297,-5.4010264)">
    <ellipse
       style="fill:#999999;fill-opacity:1;stroke:none;stroke-width:0.0964488"
       id="path6809"
       cx="29.939699"
       cy="45.06625"
       rx="2.9432869"
       ry="2.9062972" />
    <ellipse
       style="fill:#999999;fill-opacity:1;stroke:none;stroke-width:0.0964488"
       id="path6809-2"
       cx="48.116436"
       cy="45.491791"
       rx="2.9432869"
       ry="2.9062972" />
    <ellipse
       style="fill:#999999;fill-opacity:1;stroke:none;stroke-width:0.0964488"
       id="path6809-6"
       cx="30.260185"
       cy="68.335365"
       rx="2.9432869"
       ry="2.9062972" />
    <ellipse
       style="fill:#999999;fill-opacity:1;stroke:none;stroke-width:0.0964488"
       id="path6809-1"
       cx="48.304695"
       cy="81.368317"
       rx="2.9432869"
       ry="2.9062972" />
    <ellipse
       style="fill:#999999;fill-opacity:1;stroke:none;stroke-width:0.0964488"
       id="path6809-8"
       cx="29.502888"
       cy="90.764549"
       rx="2.9432869"
       ry="2.9062972" />
    <ellipse
       style="fill:#999999;fill-opacity:1;stroke:none;stroke-width:0.0964488"
       id="path6809-7"
       cx="61.636223"
       cy="99.750816"
       rx="2.9432869"
       ry="2.9062972" />
    <ellipse
       style="fill:#999999;fill-opacity:1;stroke:none;stroke-width:0.0964488"
       id="path6809-7-2"
       cx="22.204805"
       cy="99.82402"
       rx="2.9432869"
       ry="2.9062972" />
    <ellipse
       style="fill:#999999;fill-opacity:1;stroke:none;stroke-width:0.0964488"
       id="path6809-9"
       cx="62.157589"
       cy="67.064392"
       rx="2.9432869"
       ry="2.9062972" />
    <ellipse
       style="fill:#999999;fill-opacity:1;stroke:none;stroke-width:0.0964488"
       id="path6809-9-2"
       cx="46.423923"
       cy="58.12265"
       rx="2.9432869"
       ry="2.9062972" />
    <ellipse
       style="fill:#999999;fill-opacity:1;stroke:none;stroke-width:0.0964488"
       id="path6809-9-0"
       cx="43.7962"
       cy="31.432932"
       rx="2.9432869"
       ry="2.9062972" />
  </g>
  <g
     inkscape:groupmode="layer"
     id="layer6"
     inkscape:label="SnowOnBalls"
     style="display:inline"
     transform="translate(-5.0030297,-5.4010264)">
    <path
       style="fill:#ffffff;fill-opacity:1;stroke:none;stroke-width:0.0964488px;stroke-linecap:butt;stroke-linejoin:miter;stroke-opacity:1"
       d="m 40.816964,31.463443 c 0,0 0.277113,-2.987149 2.995693,-2.927016 2.71858,0.06013 2.958183,2.779663 2.951391,2.889123 -0.0068,0.109459 -0.02337,-1.60338 -2.477701,-1.601716 -2.45432,0.0017 -3.469383,1.639609 -3.469383,1.639609 z"
       id="path7197" />
    <path
       style="fill:#ffffff;fill-opacity:1;stroke:none;stroke-width:0.0964488px;stroke-linecap:butt;stroke-linejoin:miter;stroke-opacity:1"
       d="m 26.948073,45.049409 c 0,0 0.277113,-2.987149 2.995693,-2.927016 2.71858,0.06013 2.958183,2.779661 2.951392,2.889123 -0.0068,0.109457 -0.02337,-1.60338 -2.477701,-1.601715 -2.454321,0.0018 -3.469384,1.639608 -3.469384,1.639608 z"
       id="path7197-3" />
    <path
       style="fill:#ffffff;fill-opacity:1;stroke:none;stroke-width:0.0964488px;stroke-linecap:butt;stroke-linejoin:miter;stroke-opacity:1"
       d="m 45.123165,45.491031 c 0,0 0.277113,-2.987152 2.995693,-2.927019 2.71858,0.06014 2.958183,2.779665 2.951392,2.889126 -0.0068,0.109458 -0.02337,-1.60338 -2.477701,-1.601718 -2.454321,0.0018 -3.469384,1.639611 -3.469384,1.639611 z"
       id="path7197-7" />
    <path
       style="fill:#ffffff;fill-opacity:1;stroke:none;stroke-width:0.0964488px;stroke-linecap:butt;stroke-linejoin:miter;stroke-opacity:1"
       d="m 43.452117,58.14738 c 0,0 0.277113,-2.987148 2.995693,-2.927015 2.71858,0.06013 2.958183,2.779664 2.951392,2.889122 -0.0068,0.109462 -0.02337,-1.603376 -2.477702,-1.601714 -2.45432,0.0018 -3.469383,1.639607 -3.469383,1.639607 z"
       id="path7197-5" />
    <path
       style="fill:#ffffff;fill-opacity:1;stroke:none;stroke-width:0.0964488px;stroke-linecap:butt;stroke-linejoin:miter;stroke-opacity:1"
       d="m 59.193338,67.057047 c 0,0 0.277113,-2.987148 2.995693,-2.927015 2.71858,0.06013 2.958183,2.779661 2.951392,2.889122 -0.0068,0.109458 -0.02337,-1.60338 -2.477702,-1.601714 -2.45432,0.0018 -3.469383,1.639607 -3.469383,1.639607 z"
       id="path7197-9" />
    <path
       style="fill:#ffffff;fill-opacity:1;stroke:none;stroke-width:0.0964488px;stroke-linecap:butt;stroke-linejoin:miter;stroke-opacity:1"
       d="m 27.266007,68.338568 c 0,0 0.277113,-2.987148 2.995693,-2.927015 2.71858,0.06013 2.958183,2.779664 2.951392,2.889122 -0.0068,0.109458 -0.02337,-1.60338 -2.477701,-1.601714 -2.454321,0.0018 -3.469384,1.639607 -3.469384,1.639607 z"
       id="path7197-2" />
    <path
       style="fill:#ffffff;fill-opacity:1;stroke:none;stroke-width:0.0964488px;stroke-linecap:butt;stroke-linejoin:miter;stroke-opacity:1"
       d="m 45.306937,81.378907 c 0,0 0.277113,-2.987148 2.995692,-2.927015 2.71858,0.06013 2.958183,2.77966 2.951392,2.889122 -0.0068,0.109458 -0.02337,-1.60338 -2.477698,-1.601714 -2.45432,0.0018 -3.469386,1.639607 -3.469386,1.639607 z"
       id="path7197-28" />
    <path
       style="fill:#ffffff;fill-opacity:1;stroke:none;stroke-width:0.0964488px;stroke-linecap:butt;stroke-linejoin:miter;stroke-opacity:1"
       d="m 58.648233,99.736715 c 0,0 0.277113,-2.987148 2.995693,-2.927015 2.718579,0.06013 2.958182,2.779665 2.951391,2.889122 -0.0068,0.109458 -0.02337,-1.60338 -2.477701,-1.601714 -2.45432,0.0018 -3.469383,1.639607 -3.469383,1.639607 z"
       id="path7197-97" />
    <path
       style="fill:#ffffff;fill-opacity:1;stroke:none;stroke-width:0.0964488px;stroke-linecap:butt;stroke-linejoin:miter;stroke-opacity:1"
       d="m 19.230699,99.837753 c 0,0 0.277113,-2.987149 2.995693,-2.927016 2.71858,0.06013 2.958183,2.779661 2.951392,2.889123 -0.0068,0.109457 -0.02337,-1.603381 -2.477702,-1.601715 -2.45432,0.0018 -3.469383,1.639608 -3.469383,1.639608 z"
       id="path7197-36" />
    <path
       style="fill:#ffffff;fill-opacity:1;stroke:none;stroke-width:0.0964488px;stroke-linecap:butt;stroke-linejoin:miter;stroke-opacity:1"
       d="m 26.514449,90.798105 c 0,0 0.277113,-2.987149 2.995693,-2.927015 2.71858,0.06013 2.958182,2.77966 2.951391,2.889122 -0.0068,0.109458 -0.02337,-1.60338 -2.477701,-1.601714 -2.45432,0.0018 -3.469383,1.639607 -3.469383,1.639607 z"
       id="path7197-1" />
  </g>
  <g
     inkscape:groupmode="layer"
     id="layer7"
     inkscape:label="SnowOnStar"
     transform="translate(-5.0030297,-5.4010264)"
     style="display:inline" />
  <path
     style="fill:none;stroke:none;stroke-width:0.0964488px;stroke-linecap:butt;stroke-linejoin:miter;stroke-opacity:1"
     d="M 26.112295,7.6358143 28.602419,9.4562691 33.867903,7.356607 Z"
     id="path7870" />
</svg>
